<svg data-v-423bf9ae="" xmlns="http://www.w3.org/2000/svg" viewBox="0 0 438 90" class="iconLeft"><!----><!----><!----><g data-v-423bf9ae="" id="956989da-5320-4057-a038-f0c7764bc4bc" fill="white" transform="matrix(4.71327589611677,0,0,4.71327589611677,105.56740836953796,-3.47604187237215)"><path d="M6.94 8.69L6.94 8.69Q7.20 9.46 7.20 10.44L7.20 10.44L7.20 10.44Q7.20 11.44 6.96 12.15L6.96 12.15L6.96 12.15Q6.65 13.08 5.96 13.59L5.96 13.59L5.96 13.59Q5.28 14.11 4.26 14.11L4.26 14.11L4.26 14.11Q3.28 14.11 2.66 13.43L2.66 13.43L2.66 13.43Q2.63 13.38 2.60 13.39L2.60 13.39L2.60 13.39Q2.56 13.40 2.56 13.45L2.56 13.45L2.56 16.42L2.56 16.42Q2.56 16.65 2.34 16.65L2.34 16.65L1.16 16.65L1.16 16.65Q0.94 16.65 0.94 16.42L0.94 16.42L0.94 7.07L0.94 7.07Q0.94 6.85 1.16 6.85L1.16 6.85L2.34 6.85L2.34 6.85Q2.56 6.85 2.56 7.07L2.56 7.07L2.56 7.43L2.56 7.43Q2.56 7.49 2.60 7.50L2.60 7.50L2.60 7.50Q2.63 7.52 2.66 7.46L2.66 7.46L2.66 7.46Q3.26 6.73 4.26 6.73L4.26 6.73L4.26 6.73Q5.24 6.73 5.94 7.26L5.94 7.26L5.94 7.26Q6.64 7.78 6.94 8.69L6.94 8.69ZM5.11 12.12L5.11 12.12Q5.52 11.51 5.52 10.42L5.52 10.42L5.52 10.42Q5.52 9.41 5.18 8.82L5.18 8.82L5.18 8.82Q4.82 8.15 4.00 8.15L4.00 8.15L4.00 8.15Q3.30 8.15 2.91 8.81L2.91 8.81L2.91 8.81Q2.59 9.35 2.59 10.43L2.59 10.43L2.59 10.43Q2.59 11.52 2.94 12.10L2.94 12.10L2.94 12.10Q3.32 12.71 3.99 12.71L3.99 12.71L3.99 12.71Q4.72 12.71 5.11 12.12L5.11 12.12ZM9.56 5.95L9.56 5.95Q9.10 5.95 8.81 5.66L8.81 5.66L8.81 5.66Q8.51 5.38 8.51 4.93L8.51 4.93L8.51 4.93Q8.51 4.48 8.81 4.20L8.81 4.20L8.81 4.20Q9.10 3.92 9.56 3.92L9.56 3.92L9.56 3.92Q10.02 3.92 10.31 4.20L10.31 4.20L10.31 4.20Q10.60 4.48 10.60 4.93L10.60 4.93L10.60 4.93Q10.60 5.38 10.31 5.66L10.31 5.66L10.31 5.66Q10.02 5.95 9.56 5.95L9.56 5.95ZM8.97 14L8.97 14Q8.75 14 8.75 13.78L8.75 13.78L8.75 7.07L8.75 7.07Q8.75 6.85 8.97 6.85L8.97 6.85L10.15 6.85L10.15 6.85Q10.37 6.85 10.37 7.07L10.37 7.07L10.37 13.78L10.37 13.78Q10.37 14 10.15 14L10.15 14L8.97 14ZM14.94 6.73L14.94 6.73Q15.82 6.73 16.50 7.04L16.50 7.04L16.50 7.04Q17.18 7.35 17.54 7.89L17.54 7.89L17.54 7.89Q17.91 8.43 17.91 9.11L17.91 9.11L17.91 13.78L17.91 13.78Q17.91 14 17.68 14L17.68 14L16.51 14L16.51 14Q16.28 14 16.28 13.78L16.28 13.78L16.28 13.43L16.28 13.43Q16.28 13.37 16.25 13.36L16.25 13.36L16.25 13.36Q16.23 13.36 16.18 13.38L16.18 13.38L16.18 13.38Q15.43 14.11 14.17 14.11L14.17 14.11L14.17 14.11Q13.13 14.11 12.47 13.58L12.47 13.58L12.47 13.58Q11.80 13.05 11.80 12.00L11.80 12.00L11.80 12.00Q11.80 10.91 12.56 10.30L12.56 10.30L12.56 10.30Q13.33 9.69 14.71 9.69L14.71 9.69L16.20 9.69L16.20 9.69Q16.28 9.69 16.28 9.60L16.28 9.60L16.28 9.28L16.28 9.28Q16.28 8.74 15.95 8.43L15.95 8.43L15.95 8.43Q15.62 8.13 14.98 8.13L14.98 8.13L14.98 8.13Q14.49 8.13 14.17 8.31L14.17 8.31L14.17 8.31Q13.85 8.48 13.73 8.79L13.73 8.79L13.73 8.79Q13.68 8.99 13.48 8.97L13.48 8.97L12.22 8.82L12.22 8.82Q12.11 8.81 12.05 8.76L12.05 8.76L12.05 8.76Q12.00 8.71 12.01 8.64L12.01 8.64L12.01 8.64Q12.14 7.80 12.94 7.27L12.94 7.27L12.94 7.27Q13.75 6.73 14.94 6.73L14.94 6.73ZM14.62 12.82L14.62 12.82Q15.30 12.82 15.79 12.46L15.79 12.46L15.79 12.46Q16.28 12.10 16.28 11.54L16.28 11.54L16.28 10.89L16.28 10.89Q16.28 10.81 16.20 10.81L16.20 10.81L15.04 10.81L15.04 10.81Q14.29 10.81 13.86 11.09L13.86 11.09L13.86 11.09Q13.43 11.37 13.43 11.89L13.43 11.89L13.43 11.89Q13.43 12.33 13.76 12.58L13.76 12.58L13.76 12.58Q14.10 12.82 14.62 12.82L14.62 12.82ZM22.95 6.73L22.95 6.73Q24.09 6.73 24.77 7.41L24.77 7.41L24.77 7.41Q25.45 8.08 25.45 9.24L25.45 9.24L25.45 13.78L25.45 13.78Q25.45 14 25.23 14L25.23 14L24.05 14L24.05 14Q23.83 14 23.83 13.78L23.83 13.78L23.83 9.58L23.83 9.58Q23.83 8.93 23.46 8.53L23.46 8.53L23.46 8.53Q23.09 8.13 22.48 8.13L22.48 8.13L22.48 8.13Q21.88 8.13 21.51 8.53L21.51 8.53L21.51 8.53Q21.14 8.92 21.14 9.56L21.14 9.56L21.14 13.78L21.14 13.78Q21.14 14 20.92 14L20.92 14L19.74 14L19.74 14Q19.52 14 19.52 13.78L19.52 13.78L19.52 7.07L19.52 7.07Q19.52 6.85 19.74 6.85L19.74 6.85L20.92 6.85L20.92 6.85Q21.14 6.85 21.14 7.07L21.14 7.07L21.14 7.45L21.14 7.45Q21.14 7.50 21.17 7.52L21.17 7.52L21.17 7.52Q21.20 7.53 21.22 7.49L21.22 7.49L21.22 7.49Q21.81 6.73 22.95 6.73L22.95 6.73ZM30.18 14.11L30.18 14.11Q29.08 14.11 28.28 13.55L28.28 13.55L28.28 13.55Q27.48 12.99 27.17 12.00L27.17 12.00L27.17 12.00Q26.94 11.31 26.94 10.40L26.94 10.40L26.94 10.40Q26.94 9.51 27.16 8.81L27.16 8.81L27.16 8.81Q27.48 7.83 28.28 7.28L28.28 7.28L28.28 7.28Q29.08 6.73 30.20 6.73L30.20 6.73L30.20 6.73Q31.26 6.73 32.04 7.28L32.04 7.28L32.04 7.28Q32.82 7.83 33.14 8.79L33.14 8.79L33.14 8.79Q33.39 9.46 33.39 10.39L33.39 10.39L33.39 10.39Q33.39 11.27 33.15 11.98L33.15 11.98L33.15 11.98Q32.83 12.98 32.05 13.54L32.05 13.54L32.05 13.54Q31.26 14.11 30.18 14.11L30.18 14.11ZM30.18 12.71L30.18 12.71Q30.70 12.71 31.07 12.42L31.07 12.42L31.07 12.42Q31.44 12.12 31.60 11.59L31.60 11.59L31.60 11.59Q31.75 11.14 31.75 10.42L31.75 10.42L31.75 10.42Q31.75 9.73 31.61 9.24L31.61 9.24L31.61 9.24Q31.46 8.71 31.07 8.42L31.07 8.42L31.07 8.42Q30.69 8.13 30.16 8.13L30.16 8.13L30.16 8.13Q29.62 8.13 29.25 8.42L29.25 8.42L29.25 8.42Q28.87 8.71 28.71 9.24L28.71 9.24L28.71 9.24Q28.57 9.73 28.57 10.42L28.57 10.42L28.57 10.42Q28.57 11.10 28.71 11.59L28.71 11.59L28.71 11.59Q28.87 12.12 29.25 12.42L29.25 12.42L29.25 12.42Q29.64 12.71 30.18 12.71L30.18 12.71ZM41.06 6.76L41.06 6.76Q41.47 6.76 41.80 6.92L41.80 6.92L41.80 6.92Q41.97 7 41.93 7.20L41.93 7.20L41.71 8.36L41.71 8.36Q41.69 8.47 41.63 8.50L41.63 8.50L41.63 8.50Q41.57 8.53 41.44 8.50L41.44 8.50L41.44 8.50Q41.27 8.44 40.99 8.44L40.99 8.44L40.99 8.44Q40.82 8.44 40.73 8.46L40.73 8.46L40.73 8.46Q40.14 8.48 39.75 8.87L39.75 8.87L39.75 8.87Q39.35 9.25 39.35 9.87L39.35 9.87L39.35 13.78L39.35 13.78Q39.35 14 39.13 14L39.13 14L37.95 14L37.95 14Q37.73 14 37.73 13.78L37.73 13.78L37.73 7.07L37.73 7.07Q37.73 6.85 37.95 6.85L37.95 6.85L39.13 6.85L39.13 6.85Q39.35 6.85 39.35 7.07L39.35 7.07L39.35 7.62L39.35 7.62Q39.35 7.67 39.38 7.69L39.38 7.69L39.38 7.69Q39.41 7.70 39.44 7.64L39.44 7.64L39.44 7.64Q40.03 6.76 41.06 6.76L41.06 6.76ZM46.20 12.74L46.20 12.74Q46.72 12.73 47.10 12.52L47.10 12.52L47.10 12.52Q47.49 12.32 47.73 11.97L47.73 11.97L47.73 11.97Q47.80 11.86 47.91 11.86L47.91 11.86L47.91 11.86Q47.98 11.86 48.03 11.90L48.03 11.90L48.71 12.43L48.71 12.43Q48.80 12.53 48.80 12.61L48.80 12.61L48.80 12.61Q48.80 12.67 48.76 12.74L48.76 12.74L48.76 12.74Q48.36 13.38 47.66 13.75L47.66 13.75L47.66 13.75Q46.96 14.11 46.05 14.11L46.05 14.11L46.05 14.11Q44.94 14.11 44.19 13.59L44.19 13.59L44.19 13.59Q43.44 13.06 43.11 12.12L43.11 12.12L43.11 12.12Q42.83 11.35 42.83 10.39L42.83 10.39L42.83 10.39Q42.83 9.42 42.98 8.90L42.98 8.90L42.98 8.90Q43.25 7.91 44.03 7.32L44.03 7.32L44.03 7.32Q44.81 6.73 45.93 6.73L45.93 6.73L45.93 6.73Q48.55 6.73 49 9.60L49 9.60L49 9.60Q49.07 10.07 49.10 10.75L49.10 10.75L49.10 10.75Q49.10 10.98 48.87 10.98L48.87 10.98L44.53 10.98L44.53 10.98Q44.45 10.98 44.45 11.06L44.45 11.06L44.45 11.06Q44.45 11.44 44.53 11.68L44.53 11.68L44.53 11.68Q44.69 12.18 45.12 12.46L45.12 12.46L45.12 12.46Q45.56 12.74 46.20 12.74L46.20 12.74ZM45.92 8.13L45.92 8.13Q45.39 8.13 45.04 8.39L45.04 8.39L45.04 8.39Q44.70 8.65 44.58 9.11L44.58 9.11L44.58 9.11Q44.48 9.39 44.46 9.70L44.46 9.70L44.46 9.70Q44.45 9.79 44.53 9.79L44.53 9.79L47.35 9.79L47.35 9.79Q47.43 9.79 47.43 9.70L47.43 9.70L47.43 9.70Q47.38 9.28 47.35 9.20L47.35 9.20L47.35 9.20Q47.22 8.71 46.85 8.42L46.85 8.42L46.85 8.42Q46.48 8.13 45.92 8.13L45.92 8.13ZM50.82 14L50.82 14Q50.60 14 50.60 13.78L50.60 13.78L50.60 4.42L50.60 4.42Q50.60 4.20 50.82 4.20L50.82 4.20L52.00 4.20L52.00 4.20Q52.22 4.20 52.22 4.42L52.22 4.42L52.22 13.78L52.22 13.78Q52.22 14 52.00 14L52.00 14L50.82 14ZM54.91 5.95L54.91 5.95Q54.45 5.95 54.15 5.66L54.15 5.66L54.15 5.66Q53.86 5.38 53.86 4.93L53.86 4.93L53.86 4.93Q53.86 4.48 54.15 4.20L54.15 4.20L54.15 4.20Q54.45 3.92 54.91 3.92L54.91 3.92L54.91 3.92Q55.37 3.92 55.66 4.20L55.66 4.20L55.66 4.20Q55.94 4.48 55.94 4.93L55.94 4.93L55.94 4.93Q55.94 5.38 55.66 5.66L55.66 5.66L55.66 5.66Q55.37 5.95 54.91 5.95L54.91 5.95ZM54.32 14L54.32 14Q54.10 14 54.10 13.78L54.10 13.78L54.10 7.07L54.10 7.07Q54.10 6.85 54.32 6.85L54.32 6.85L55.50 6.85L55.50 6.85Q55.72 6.85 55.72 7.07L55.72 7.07L55.72 13.78L55.72 13.78Q55.72 14 55.50 14L55.50 14L54.32 14ZM60.23 14.08L60.23 14.08Q59.35 14.08 58.68 13.82L58.68 13.82L58.68 13.82Q58.02 13.57 57.65 13.11L57.65 13.11L57.65 13.11Q57.29 12.66 57.29 12.10L57.29 12.10L57.29 12.03L57.29 12.03Q57.29 11.80 57.51 11.80L57.51 11.80L58.63 11.80L58.63 11.80Q58.86 11.80 58.86 11.90L58.86 11.90L58.86 12.00L58.86 12.00Q58.86 12.35 59.24 12.61L59.24 12.61L59.24 12.61Q59.63 12.87 60.21 12.87L60.21 12.87L60.21 12.87Q60.77 12.87 61.12 12.63L61.12 12.63L61.12 12.63Q61.47 12.40 61.47 12.05L61.47 12.05L61.47 12.05Q61.47 11.73 61.19 11.57L61.19 11.57L61.19 11.57Q60.90 11.41 60.26 11.23L60.26 11.23L59.72 11.06L59.72 11.06Q59.01 10.85 58.52 10.61L58.52 10.61L58.52 10.61Q58.03 10.37 57.69 9.96L57.69 9.96L57.69 9.96Q57.36 9.55 57.36 8.90L57.36 8.90L57.36 8.90Q57.36 7.92 58.12 7.34L58.12 7.34L58.12 7.34Q58.88 6.76 60.14 6.76L60.14 6.76L60.14 6.76Q61.00 6.76 61.64 7.04L61.64 7.04L61.64 7.04Q62.29 7.31 62.64 7.79L62.64 7.79L62.64 7.79Q63 8.27 63 8.89L63 8.89L63 8.89Q63 8.96 62.94 9.01L62.94 9.01L62.94 9.01Q62.87 9.06 62.78 9.06L62.78 9.06L61.70 9.06L61.70 9.06Q61.47 9.06 61.47 8.97L61.47 8.97L61.47 8.89L61.47 8.89Q61.47 8.53 61.12 8.28L61.12 8.28L61.12 8.28Q60.76 8.04 60.14 8.04L60.14 8.04L60.14 8.04Q59.60 8.04 59.26 8.24L59.26 8.24L59.26 8.24Q58.91 8.44 58.91 8.81L58.91 8.81L58.91 8.81Q58.91 9.14 59.23 9.32L59.23 9.32L59.23 9.32Q59.56 9.49 60.31 9.70L60.31 9.70L60.63 9.79L60.63 9.79Q61.39 10.01 61.89 10.23L61.89 10.23L61.89 10.23Q62.40 10.46 62.75 10.88L62.75 10.88L62.75 10.88Q63.10 11.30 63.10 11.96L63.10 11.96L63.10 11.96Q63.10 12.95 62.31 13.52L62.31 13.52L62.31 13.52Q61.53 14.08 60.23 14.08L60.23 14.08ZM67.90 6.73L67.90 6.73Q69.05 6.73 69.73 7.41L69.73 7.41L69.73 7.41Q70.41 8.08 70.41 9.24L70.41 9.24L70.41 13.78L70.41 13.78Q70.41 14 70.18 14L70.18 14L69.01 14L69.01 14Q68.78 14 68.78 13.78L68.78 13.78L68.78 9.58L68.78 9.58Q68.78 8.93 68.41 8.53L68.41 8.53L68.41 8.53Q68.04 8.13 67.44 8.13L67.44 8.13L67.44 8.13Q66.84 8.13 66.47 8.53L66.47 8.53L66.47 8.53Q66.09 8.92 66.09 9.56L66.09 9.56L66.09 13.78L66.09 13.78Q66.09 14 65.87 14L65.87 14L64.69 14L64.69 14Q64.47 14 64.47 13.78L64.47 13.78L64.47 4.42L64.47 4.42Q64.47 4.20 64.69 4.20L64.69 4.20L65.87 4.20L65.87 4.20Q66.09 4.20 66.09 4.42L66.09 4.42L66.09 7.45L66.09 7.45Q66.09 7.50 66.12 7.52L66.12 7.52L66.12 7.52Q66.15 7.53 66.18 7.49L66.18 7.49L66.18 7.49Q66.77 6.73 67.90 6.73L67.90 6.73Z"></path></g><!----><g data-v-423bf9ae="" id="d783c012-829a-43b3-9bfa-c3dc5e7e2d7c" transform="matrix(2.108419393237461,0,0,2.108419393237461,-59.76292046474926,-59.7639740953512)" stroke="none" fill="white"><path d="M69.842 28.657H30.157a1.5 1.5 0 0 0-1.5 1.5v39.686a1.5 1.5 0 0 0 1.5 1.5h39.685a1.5 1.5 0 0 0 1.5-1.5V30.157a1.5 1.5 0 0 0-1.5-1.5zM54.813 53.5h1.617v14.843H43.569V53.501h1.618a1.5 1.5 0 0 0 1.5-1.5V31.657h6.626V52a1.5 1.5 0 0 0 1.5 1.5zM31.657 31.657h5.794v20.344a1.5 1.5 0 0 0 1.5 1.5h1.618v14.842h-8.912V31.657zm36.685 36.686h-8.911V53.5h1.617a1.5 1.5 0 0 0 1.5-1.5V31.657h5.794v36.686z"></path></g><!----></svg>